<svg xmlns="http://www.w3.org/2000/svg" xmlns:xlink="http://www.w3.org/1999/xlink" viewBox="0 0 704.12 232.4"><defs><style>.cls-1{fill:url(#linear-gradient);}.cls-2{font-size:110.52px;fill:#7f3f98;font-family:Poppins-Bold, Poppins;font-weight:700;}.cls-3{font-size:66.31px;}</style><linearGradient id="linear-gradient" y1="101.88" x2="204.52" y2="101.88" gradientUnits="userSpaceOnUse"><stop offset="0.35" stop-color="#7f3f98"/><stop offset="1" stop-color="#62ccac"/></linearGradient></defs><g id="Layer_2" data-name="Layer 2"><g id="Layer_2-2" data-name="Layer 2"><path class="cls-1" d="M204.52,101.88A101.43,101.43,0,0,1,196.3,142c-.27.62-.53,1.22-.81,1.83-.17.37-.33.73-.51,1.09s-.26.54-.4.84-.26.53-.41.79-.27.57-.43.84a73.37,73.37,0,0,1-14.5,18.73c-.42.4-.84.79-1.27,1.17-.16.16-.34.31-.51.46-.87.76-1.85,1.57-2.92,2.42-.38.3-.77.62-1.16.91a74.17,74.17,0,0,1-25.91,12.6c-.79.2-1.6.39-2.43.58l-1.65.34-2.1.38-.26,0-1,.18-1.79.23c-.41,0-.85.1-1.33.14s-1.16.12-1.82.16-1.06.09-1.64.11c-.25,0-.49,0-.75,0-.42,0-.84,0-1.29,0h-.93c-.87,0-1.78,0-2.73,0l-1.06,0c-.26,0-.52,0-.78-.05-.46,0-.93,0-1.4-.08,0,0,0,0,0,0l-1.24-.1-1.28-.12-1.72-.2c-.56-.07-1.16-.16-1.75-.25l-1.81-.3c-.61-.1-1.23-.23-1.84-.36s-1.26-.26-1.89-.42l-1-.23c-.32-.07-.63-.16-1-.24-.65-.18-1.3-.35-2-.55a70.32,70.32,0,0,1-8.1-2.91c-.54-.23-1.06-.46-1.57-.71l-1.08-.5c-.64-.31-1.25-.61-1.86-.93l-.29-.14c-.41-.22-.81-.43-1.21-.66l-1.27-.71c-.51-.29-1-.58-1.51-.88a4.25,4.25,0,0,1-.39-.25c-.45-.27-.9-.54-1.33-.83s-.86-.55-1.26-.84-.91-.62-1.36-.94-.78-.54-1.16-.83-.91-.67-1.34-1-1-.81-1.51-1.21c-.81-.65-1.56-1.3-2.29-1.93s-1.17-1.07-1.72-1.59l-1.23-1.21c-.43-.42-.84-.84-1.2-1.23s-.8-.83-1.19-1.27c-.13-.13-.23-.24-.34-.37s-.51-.58-.79-.89l-.88-1c-.91-1.1-1.94-2.4-3-3.9-.39-.53-.78-1.08-1.18-1.67s-.89-1.31-1.34-2c-.29-.44-.57-.91-.86-1.38-.37-.64-.76-1.28-1.14-2-.26-.46-.52-.93-.78-1.42s-.43-.8-.62-1.21-.47-.92-.7-1.38-.45-.95-.66-1.44-.41-.88-.6-1.34c-.34-.8-.68-1.6-1-2.44l-.48-1.25q-1.17-3.21-2.12-6.78c-.14-.56-.27-1.11-.4-1.66s-.25-1.11-.36-1.66c-.23-1.17-.45-2.35-.64-3.53q-.2-1.33-.36-2.7c-.07-.67-.15-1.35-.2-2s-.09-1.14-.13-1.72c-.09-1.48-.13-3-.13-4.49a71.47,71.47,0,0,1,.78-10.62c.13-.76.26-1.55.4-2.36.09-.49.18-1,.28-1.5a74.31,74.31,0,0,1,2.33-8.55,6.18,6.18,0,0,1,.26-.72,39.94,39.94,0,0,1,4.85-8.94,46.18,46.18,0,0,1,21.23-16A43.06,43.06,0,0,1,136.81,76c1.57,1.76,11.1,12.72,10.81,28.85-.08,3.79-.36,13-6.76,21.36-2,2.61-6.59,8.56-14.49,10a20.28,20.28,0,0,1-10-.76c-1.88-.65-7.08-2.41-9.84-7.51a16.11,16.11,0,0,1-1.74-8.08,26,26,0,0,1,1.74-8.65c1.42-4.37,2.27-4.67,2.31-6.93,0-.39,0-5.93-3.66-7.5-3.24-1.37-7,1.63-8.7,3.46s-2.28,4.08-3.28,8.27a40.54,40.54,0,0,0-1.35,10.59,31,31,0,0,0,2.32,12.69A26.94,26.94,0,0,0,113.64,148a32.86,32.86,0,0,0,12.93,1,34.44,34.44,0,0,0,15.84-6.74,42.87,42.87,0,0,0,10.81-11.16,44.19,44.19,0,0,0,6-13.85,53,53,0,0,0,.95-21.55,55,55,0,0,0-8.49-21.55,49.38,49.38,0,0,0-39.39-24.61,66.33,66.33,0,0,0-21.63,1.34A64.92,64.92,0,0,0,69.6,59.68,61.59,61.59,0,0,0,48.74,83.34c-5.63,11.36-6.1,21.35-6.37,28.48a85.12,85.12,0,0,0,5.21,31.92,92.91,92.91,0,0,0,16.81,27.9A102.52,102.52,0,0,0,80,186.07c12.65,9.3,26.88,14,38.69,16.38a102.7,102.7,0,0,1-16.46,1.32C45.78,203.77,0,158.14,0,101.88S45.78,0,102.26,0,204.52,45.61,204.52,101.88Z"/><text class="cls-2" transform="translate(237.39 125.9)">NARUTO<tspan class="cls-3"><tspan x="0" y="66.31">CENTER</tspan></tspan></text></g></g></svg>